<svg xmlns="http://www.w3.org/2000/svg" width="377.92999999999995" height="35" viewBox="0 0 377.92999999999995 35"><rect class="svg__rect" x="0" y="0" width="236.57" height="35" fill="#F3CA20"/><rect class="svg__rect" x="234.57" y="0" width="143.35999999999999" height="35" fill="#000000"/><path class="svg__text" d="M15.70 22L14.22 22L14.22 13.47L19.64 13.47L19.64 14.66L15.70 14.66L15.70 17.20L19.13 17.20L19.13 18.38L15.70 18.38L15.70 22ZM25.36 22L23.89 22L23.89 13.47L25.36 13.47L25.36 22ZM31.65 22L30.17 22L30.17 13.47L31.65 13.47L35.47 19.54L35.47 13.47L36.94 13.47L36.94 22L35.46 22L31.65 15.95L31.65 22ZM42.46 22L40.92 22L44.14 13.47L45.47 13.47L48.70 22L47.15 22L46.46 20.01L43.15 20.01L42.46 22ZM44.80 15.28L43.57 18.82L46.04 18.82L44.80 15.28ZM58.01 22L52.65 22L52.65 13.47L54.14 13.47L54.14 20.82L58.01 20.82L58.01 22ZM61.29 23.12L61.29 22L66.66 22L66.66 23.12L61.29 23.12ZM72.99 22L70.54 22L70.54 13.47L73.06 13.47Q74.19 13.47 75.06 13.97Q75.94 14.48 76.42 15.40Q76.90 16.33 76.90 17.52L76.90 17.52L76.90 17.95Q76.90 19.16 76.42 20.08Q75.93 21.00 75.04 21.50Q74.15 22 72.99 22L72.99 22ZM72.02 14.66L72.02 20.82L72.99 20.82Q74.15 20.82 74.78 20.09Q75.40 19.36 75.41 17.99L75.41 17.99L75.41 17.52Q75.41 16.13 74.81 15.40Q74.21 14.66 73.06 14.66L73.06 14.66L72.02 14.66ZM86.94 22L81.37 22L81.37 13.47L86.90 13.47L86.90 14.66L82.85 14.66L82.85 17.02L86.35 17.02L86.35 18.19L82.85 18.19L82.85 20.82L86.94 20.82L86.94 22ZM90.71 19.42L90.71 19.42L92.19 19.42Q92.19 20.15 92.67 20.55Q93.15 20.95 94.05 20.95L94.05 20.95Q94.82 20.95 95.21 20.63Q95.60 20.32 95.60 19.80L95.60 19.80Q95.60 19.24 95.20 18.94Q94.81 18.63 93.78 18.32Q92.74 18.01 92.14 17.63L92.14 17.63Q90.97 16.90 90.97 15.72L90.97 15.72Q90.97 14.69 91.81 14.02Q92.65 13.35 93.99 13.35L93.99 13.35Q94.88 13.35 95.58 13.68Q96.28 14.01 96.68 14.61Q97.07 15.22 97.07 15.96L97.07 15.96L95.60 15.96Q95.60 15.29 95.18 14.91Q94.76 14.54 93.98 14.54L93.98 14.54Q93.25 14.54 92.85 14.85Q92.45 15.16 92.45 15.71L92.45 15.71Q92.45 16.18 92.89 16.50Q93.32 16.81 94.31 17.10Q95.31 17.40 95.91 17.78Q96.52 18.16 96.80 18.65Q97.08 19.13 97.08 19.79L97.08 19.79Q97.08 20.86 96.26 21.49Q95.45 22.12 94.05 22.12L94.05 22.12Q93.12 22.12 92.34 21.77Q91.57 21.43 91.14 20.83Q90.71 20.22 90.71 19.42ZM103.05 14.66L100.41 14.66L100.41 13.47L107.18 13.47L107.18 14.66L104.52 14.66L104.52 22L103.05 22L103.05 14.66ZM112.50 22L111.03 22L111.03 13.47L112.50 13.47L112.50 22ZM118.80 22L117.31 22L117.31 13.47L118.80 13.47L122.61 19.54L122.61 13.47L124.08 13.47L124.08 22L122.60 22L118.80 15.95L118.80 22ZM129.60 22L128.06 22L131.28 13.47L132.61 13.47L135.84 22L134.29 22L133.60 20.01L130.29 20.01L129.60 22ZM131.94 15.28L130.71 18.82L133.18 18.82L131.94 15.28ZM141.48 14.66L138.84 14.66L138.84 13.47L145.61 13.47L145.61 14.66L142.95 14.66L142.95 22L141.48 22L141.48 14.66ZM150.93 22L149.45 22L149.45 13.47L150.93 13.47L150.93 22ZM155.47 18.00L155.47 18.00L155.47 17.52Q155.47 16.28 155.91 15.32Q156.35 14.37 157.16 13.86Q157.97 13.35 159.01 13.35Q160.05 13.35 160.86 13.85Q161.66 14.35 162.10 15.29Q162.54 16.23 162.55 17.48L162.55 17.48L162.55 17.96Q162.55 19.21 162.11 20.16Q161.68 21.10 160.87 21.61Q160.07 22.12 159.02 22.12L159.02 22.12Q157.98 22.12 157.17 21.61Q156.36 21.10 155.92 20.17Q155.47 19.23 155.47 18.00ZM156.95 17.46L156.95 17.96Q156.95 19.36 157.50 20.13Q158.05 20.90 159.02 20.90L159.02 20.90Q160.00 20.90 160.53 20.15Q161.06 19.40 161.06 17.96L161.06 17.96L161.06 17.51Q161.06 16.09 160.53 15.34Q159.99 14.58 159.01 14.58L159.01 14.58Q158.05 14.58 157.51 15.33Q156.96 16.09 156.95 17.46L156.95 17.46ZM168.49 22L167.01 22L167.01 13.47L168.49 13.47L172.31 19.54L172.31 13.47L173.78 13.47L173.78 22L172.30 22L168.49 15.95L168.49 22ZM186.79 22L183.73 13.47L185.36 13.47L187.50 20.14L189.67 13.47L191.30 13.47L188.23 22L186.79 22ZM195.00 18.51L195.00 18.51L195.00 17.03Q195.00 15.19 195.68 14.27Q196.37 13.35 197.79 13.35L197.79 13.35Q199.19 13.35 199.87 14.25Q200.56 15.14 200.58 16.93L200.58 16.93L200.58 18.41Q200.58 20.25 199.89 21.18Q199.20 22.12 197.80 22.12L197.80 22.12Q196.41 22.12 195.71 21.21Q195.01 20.29 195.00 18.51ZM196.41 16.68L196.41 18.61Q196.41 19.81 196.75 20.39Q197.08 20.98 197.80 20.98L197.80 20.98Q198.48 20.98 198.81 20.44Q199.14 19.90 199.16 18.74L199.16 18.74L199.16 16.81Q199.16 15.61 198.83 15.05Q198.50 14.49 197.79 14.49L197.79 14.49Q197.09 14.49 196.76 15.02Q196.43 15.55 196.41 16.68L196.41 16.68ZM205.20 21.85Q204.98 21.63 204.98 21.29Q204.98 20.95 205.20 20.73Q205.41 20.50 205.81 20.50L205.81 20.50Q206.21 20.50 206.42 20.73Q206.64 20.95 206.64 21.29L206.64 21.29Q206.64 21.63 206.42 21.84Q206.21 22.06 205.81 22.06L205.81 22.06Q205.43 22.06 205.20 21.85ZM213.61 15.15L211.51 15.87L211.51 14.66L214.84 13.44L215.02 13.44L215.02 22L213.61 22L213.61 15.15ZM221.35 21.85Q221.13 21.63 221.13 21.29Q221.13 20.95 221.35 20.73Q221.56 20.50 221.96 20.50L221.96 20.50Q222.35 20.50 222.57 20.73Q222.79 20.95 222.79 21.29L222.79 21.29Q222.79 21.63 222.57 21.84Q222.35 22.06 221.96 22.06L221.96 22.06Q221.57 22.06 221.35 21.85Z" fill="#000000"/><path class="svg__text" d="M248.33 17.80L248.33 17.80Q248.33 16.55 248.93 15.55Q249.54 14.56 250.60 14.00Q251.66 13.43 252.99 13.43L252.99 13.43Q254.32 13.43 255.39 14.00Q256.45 14.56 257.06 15.55Q257.66 16.55 257.66 17.80L257.66 17.80Q257.66 19.05 257.06 20.04Q256.45 21.04 255.39 21.60Q254.33 22.17 252.99 22.17L252.99 22.17Q251.66 22.17 250.60 21.60Q249.54 21.04 248.93 20.04Q248.33 19.05 248.33 17.80ZM250.73 17.80L250.73 17.80Q250.73 18.51 251.03 19.05Q251.33 19.60 251.85 19.90Q252.36 20.20 252.99 20.20L252.99 20.20Q253.63 20.20 254.15 19.90Q254.66 19.60 254.96 19.05Q255.26 18.51 255.26 17.80L255.26 17.80Q255.26 17.09 254.96 16.54Q254.66 16 254.15 15.70Q253.63 15.40 252.99 15.40L252.99 15.40Q252.36 15.40 251.84 15.70Q251.33 16 251.03 16.54Q250.73 17.09 250.73 17.80ZM264.72 22L262.39 22L262.39 13.60L264.35 13.60L268.06 18.07L268.06 13.60L270.38 13.60L270.38 22L268.43 22L264.72 17.52L264.72 22ZM282.29 22L275.55 22L275.55 13.60L282.14 13.60L282.14 15.44L277.90 15.44L277.90 16.85L281.63 16.85L281.63 18.63L277.90 18.63L277.90 20.17L282.29 20.17L282.29 22ZM289.47 22L287.10 22L287.10 13.60L293.69 13.60L293.69 15.44L289.47 15.44L289.47 17.28L293.18 17.28L293.18 19.12L289.47 19.12L289.47 22ZM300.66 22L298.28 22L298.28 13.60L300.66 13.60L300.66 22ZM312.22 22L305.83 22L305.83 13.60L308.21 13.60L308.21 20.11L312.22 20.11L312.22 22ZM323.38 22L316.64 22L316.64 13.60L323.23 13.60L323.23 15.44L318.99 15.44L318.99 16.85L322.73 16.85L322.73 18.63L318.99 18.63L318.99 20.17L323.38 20.17L323.38 22ZM327.67 20.75L327.67 20.75Q327.67 20.15 328.06 19.78Q328.45 19.41 329.04 19.41L329.04 19.41Q329.64 19.41 330.02 19.78Q330.41 20.15 330.41 20.75L330.41 20.75Q330.41 21.34 330.02 21.72Q329.63 22.11 329.04 22.11L329.04 22.11Q328.46 22.11 328.07 21.72Q327.67 21.34 327.67 20.75ZM341.81 22L335.07 22L335.07 13.60L341.66 13.60L341.66 15.44L337.42 15.44L337.42 16.85L341.15 16.85L341.15 18.63L337.42 18.63L337.42 20.17L341.81 20.17L341.81 22ZM348.47 22L345.75 22L348.81 17.75L345.88 13.60L348.56 13.60L350.24 16.02L351.89 13.60L354.47 13.60L351.54 17.66L354.66 22L351.92 22L350.18 19.40L348.47 22ZM365.69 22L358.94 22L358.94 13.60L365.54 13.60L365.54 15.44L361.30 15.44L361.30 16.85L365.03 16.85L365.03 18.63L361.30 18.63L361.30 20.17L365.69 20.17L365.69 22Z" fill="#F3CA20" x="247.57"/></svg>