<svg xmlns="http://www.w3.org/2000/svg" width="216.98999999999998" height="35" viewBox="0 0 216.98999999999998 35"><rect class="svg__rect" x="0" y="0" width="71.78999999999999" height="35" fill="#F3CA20"/><rect class="svg__rect" x="69.78999999999999" y="0" width="147.2" height="35" fill="#000000"/><path class="svg__text" d="M15.70 22L14.22 22L14.22 13.47L19.64 13.47L19.64 14.66L15.70 14.66L15.70 17.20L19.13 17.20L19.13 18.38L15.70 18.38L15.70 22ZM25.36 22L23.89 22L23.89 13.47L25.36 13.47L25.36 22ZM31.65 22L30.17 22L30.17 13.47L31.65 13.47L35.47 19.54L35.47 13.47L36.94 13.47L36.94 22L35.46 22L31.65 15.95L31.65 22ZM42.46 22L40.92 22L44.14 13.47L45.47 13.47L48.70 22L47.15 22L46.46 20.01L43.15 20.01L42.46 22ZM44.80 15.28L43.57 18.82L46.04 18.82L44.80 15.28ZM58.01 22L52.65 22L52.65 13.47L54.14 13.47L54.14 20.82L58.01 20.82L58.01 22Z" fill="#000000"/><path class="svg__text" d="M87.95 22L83.98 22L83.98 13.60L87.95 13.60Q89.33 13.60 90.40 14.12Q91.47 14.63 92.06 15.58Q92.64 16.53 92.64 17.80L92.64 17.80Q92.64 19.07 92.06 20.02Q91.47 20.97 90.40 21.48Q89.33 22 87.95 22L87.95 22ZM86.36 15.50L86.36 20.10L87.86 20.10Q88.93 20.10 89.59 19.49Q90.24 18.88 90.24 17.80L90.24 17.80Q90.24 16.72 89.59 16.11Q88.93 15.50 87.86 15.50L87.86 15.50L86.36 15.50ZM104.12 22L97.37 22L97.37 13.60L103.96 13.60L103.96 15.44L99.73 15.44L99.73 16.85L103.46 16.85L103.46 18.63L99.73 18.63L99.73 20.17L104.12 20.17L104.12 22ZM108.34 21.24L108.34 21.24L109.11 19.49Q109.68 19.86 110.42 20.09Q111.17 20.32 111.89 20.32L111.89 20.32Q113.25 20.32 113.26 19.64L113.26 19.64Q113.26 19.28 112.87 19.11Q112.48 18.93 111.61 18.74L111.61 18.74Q110.66 18.53 110.03 18.30Q109.39 18.06 108.94 17.55Q108.48 17.03 108.48 16.16L108.48 16.16Q108.48 15.39 108.90 14.77Q109.32 14.15 110.15 13.79Q110.99 13.43 112.20 13.43L112.20 13.43Q113.02 13.43 113.83 13.62Q114.63 13.80 115.25 14.17L115.25 14.17L114.52 15.93Q113.32 15.28 112.18 15.28L112.18 15.28Q111.48 15.28 111.15 15.49Q110.83 15.70 110.83 16.04L110.83 16.04Q110.83 16.37 111.22 16.54Q111.60 16.71 112.45 16.89L112.45 16.89Q113.41 17.10 114.04 17.33Q114.67 17.56 115.13 18.07Q115.60 18.58 115.60 19.46L115.60 19.46Q115.60 20.21 115.18 20.83Q114.76 21.44 113.92 21.80Q113.08 22.17 111.87 22.17L111.87 22.17Q110.85 22.17 109.89 21.92Q108.93 21.67 108.34 21.24ZM121.96 15.48L119.38 15.48L119.38 13.60L126.90 13.60L126.90 15.48L124.34 15.48L124.34 22L121.96 22L121.96 15.48ZM133.65 22L131.27 22L131.27 13.60L133.65 13.60L133.65 22ZM141.16 22L138.83 22L138.83 13.60L140.78 13.60L144.49 18.07L144.49 13.60L146.82 13.60L146.82 22L144.87 22L141.16 17.52L141.16 22ZM153.40 22L150.97 22L154.68 13.60L157.03 13.60L160.74 22L158.27 22L157.61 20.37L154.06 20.37L153.40 22ZM155.84 15.93L154.75 18.61L156.92 18.61L155.84 15.93ZM166.69 15.48L164.10 15.48L164.10 13.60L171.63 13.60L171.63 15.48L169.06 15.48L169.06 22L166.69 22L166.69 15.48ZM178.38 22L176.00 22L176.00 13.60L178.38 13.60L178.38 22ZM183.12 17.80L183.12 17.80Q183.12 16.55 183.73 15.55Q184.33 14.56 185.39 14.00Q186.46 13.43 187.79 13.43L187.79 13.43Q189.12 13.43 190.18 14.00Q191.25 14.56 191.85 15.55Q192.46 16.55 192.46 17.80L192.46 17.80Q192.46 19.05 191.85 20.04Q191.25 21.04 190.18 21.60Q189.12 22.17 187.79 22.17L187.79 22.17Q186.46 22.17 185.39 21.60Q184.33 21.04 183.73 20.04Q183.12 19.05 183.12 17.80ZM185.52 17.80L185.52 17.80Q185.52 18.51 185.82 19.05Q186.12 19.60 186.64 19.90Q187.16 20.20 187.79 20.20L187.79 20.20Q188.43 20.20 188.94 19.90Q189.46 19.60 189.76 19.05Q190.06 18.51 190.06 17.80L190.06 17.80Q190.06 17.09 189.76 16.54Q189.46 16 188.94 15.70Q188.43 15.40 187.79 15.40L187.79 15.40Q187.15 15.40 186.64 15.70Q186.12 16 185.82 16.54Q185.52 17.09 185.52 17.80ZM199.52 22L197.19 22L197.19 13.60L199.14 13.60L202.85 18.07L202.85 13.60L205.18 13.60L205.18 22L203.23 22L199.52 17.52L199.52 22Z" fill="#F3CA20" x="82.78999999999999"/></svg>