<svg xmlns="http://www.w3.org/2000/svg" width="459.95" height="35" viewBox="0 0 459.95 35"><rect class="svg__rect" x="0" y="0" width="236.57" height="35" fill="#F3CA20"/><rect class="svg__rect" x="234.57" y="0" width="225.38" height="35" fill="#000000"/><path class="svg__text" d="M15.70 22L14.22 22L14.22 13.47L19.64 13.47L19.64 14.66L15.70 14.66L15.70 17.20L19.13 17.20L19.13 18.38L15.70 18.38L15.70 22ZM25.36 22L23.89 22L23.89 13.47L25.36 13.47L25.36 22ZM31.65 22L30.17 22L30.17 13.47L31.65 13.47L35.47 19.54L35.47 13.47L36.94 13.47L36.94 22L35.46 22L31.65 15.95L31.65 22ZM42.46 22L40.92 22L44.14 13.47L45.47 13.47L48.70 22L47.15 22L46.46 20.01L43.15 20.01L42.46 22ZM44.80 15.28L43.57 18.82L46.04 18.82L44.80 15.28ZM58.01 22L52.65 22L52.65 13.47L54.14 13.47L54.14 20.82L58.01 20.82L58.01 22ZM61.29 23.12L61.29 22L66.66 22L66.66 23.12L61.29 23.12ZM72.99 22L70.54 22L70.54 13.47L73.06 13.47Q74.19 13.47 75.06 13.97Q75.94 14.48 76.42 15.40Q76.90 16.33 76.90 17.52L76.90 17.52L76.90 17.95Q76.90 19.16 76.42 20.08Q75.93 21.00 75.04 21.50Q74.15 22 72.99 22L72.99 22ZM72.02 14.66L72.02 20.82L72.99 20.82Q74.15 20.82 74.78 20.09Q75.40 19.36 75.41 17.99L75.41 17.99L75.41 17.52Q75.41 16.13 74.81 15.40Q74.21 14.66 73.06 14.66L73.06 14.66L72.02 14.66ZM86.94 22L81.37 22L81.37 13.47L86.90 13.47L86.90 14.66L82.85 14.66L82.85 17.02L86.35 17.02L86.35 18.19L82.85 18.19L82.85 20.82L86.94 20.82L86.94 22ZM90.71 19.42L90.71 19.42L92.19 19.42Q92.19 20.15 92.67 20.55Q93.15 20.95 94.05 20.95L94.05 20.95Q94.82 20.95 95.21 20.63Q95.60 20.32 95.60 19.80L95.60 19.80Q95.60 19.24 95.20 18.94Q94.81 18.63 93.78 18.32Q92.74 18.01 92.14 17.63L92.14 17.63Q90.97 16.90 90.97 15.72L90.97 15.72Q90.97 14.69 91.81 14.02Q92.65 13.35 93.99 13.35L93.99 13.35Q94.88 13.35 95.58 13.68Q96.28 14.01 96.68 14.61Q97.07 15.22 97.07 15.96L97.07 15.96L95.60 15.96Q95.60 15.29 95.18 14.91Q94.76 14.54 93.98 14.54L93.98 14.54Q93.25 14.54 92.85 14.85Q92.45 15.16 92.45 15.71L92.45 15.71Q92.45 16.18 92.89 16.50Q93.32 16.81 94.31 17.10Q95.31 17.40 95.91 17.78Q96.52 18.16 96.80 18.65Q97.08 19.13 97.08 19.79L97.08 19.79Q97.08 20.86 96.26 21.49Q95.45 22.12 94.05 22.12L94.05 22.12Q93.12 22.12 92.34 21.77Q91.57 21.43 91.14 20.83Q90.71 20.22 90.71 19.42ZM103.05 14.66L100.41 14.66L100.41 13.47L107.18 13.47L107.18 14.66L104.52 14.66L104.52 22L103.05 22L103.05 14.66ZM112.50 22L111.03 22L111.03 13.47L112.50 13.47L112.50 22ZM118.80 22L117.31 22L117.31 13.47L118.80 13.47L122.61 19.54L122.61 13.47L124.08 13.47L124.08 22L122.60 22L118.80 15.95L118.80 22ZM129.60 22L128.06 22L131.28 13.47L132.61 13.47L135.84 22L134.29 22L133.60 20.01L130.29 20.01L129.60 22ZM131.94 15.28L130.71 18.82L133.18 18.82L131.94 15.28ZM141.48 14.66L138.84 14.66L138.84 13.47L145.61 13.47L145.61 14.66L142.95 14.66L142.95 22L141.48 22L141.48 14.66ZM150.93 22L149.45 22L149.45 13.47L150.93 13.47L150.93 22ZM155.47 18.00L155.47 18.00L155.47 17.52Q155.47 16.28 155.91 15.32Q156.35 14.37 157.16 13.86Q157.97 13.35 159.01 13.35Q160.05 13.35 160.86 13.85Q161.66 14.35 162.10 15.29Q162.54 16.23 162.55 17.48L162.55 17.48L162.55 17.96Q162.55 19.21 162.11 20.16Q161.68 21.10 160.87 21.61Q160.07 22.12 159.02 22.12L159.02 22.12Q157.98 22.12 157.17 21.61Q156.36 21.10 155.92 20.17Q155.47 19.23 155.47 18.00ZM156.95 17.46L156.95 17.96Q156.95 19.36 157.50 20.13Q158.05 20.90 159.02 20.90L159.02 20.90Q160.00 20.90 160.53 20.15Q161.06 19.40 161.06 17.96L161.06 17.96L161.06 17.51Q161.06 16.09 160.53 15.34Q159.99 14.58 159.01 14.58L159.01 14.58Q158.05 14.58 157.51 15.33Q156.96 16.09 156.95 17.46L156.95 17.46ZM168.49 22L167.01 22L167.01 13.47L168.49 13.47L172.31 19.54L172.31 13.47L173.78 13.47L173.78 22L172.30 22L168.49 15.95L168.49 22ZM186.79 22L183.73 13.47L185.36 13.47L187.50 20.14L189.67 13.47L191.30 13.47L188.23 22L186.79 22ZM195.00 18.51L195.00 18.51L195.00 17.03Q195.00 15.19 195.68 14.27Q196.37 13.35 197.79 13.35L197.79 13.35Q199.19 13.35 199.87 14.25Q200.56 15.14 200.58 16.93L200.58 16.93L200.58 18.41Q200.58 20.25 199.89 21.18Q199.20 22.12 197.80 22.12L197.80 22.12Q196.41 22.12 195.71 21.21Q195.01 20.29 195.00 18.51ZM196.41 16.68L196.41 18.61Q196.41 19.81 196.75 20.39Q197.08 20.98 197.80 20.98L197.80 20.98Q198.48 20.98 198.81 20.44Q199.14 19.90 199.16 18.74L199.16 18.74L199.16 16.81Q199.16 15.61 198.83 15.05Q198.50 14.49 197.79 14.49L197.79 14.49Q197.09 14.49 196.76 15.02Q196.43 15.55 196.41 16.68L196.41 16.68ZM205.20 21.85Q204.98 21.63 204.98 21.29Q204.98 20.95 205.20 20.73Q205.41 20.50 205.81 20.50L205.81 20.50Q206.21 20.50 206.42 20.73Q206.64 20.95 206.64 21.29L206.64 21.29Q206.64 21.63 206.42 21.84Q206.21 22.06 205.81 22.06L205.81 22.06Q205.43 22.06 205.20 21.85ZM213.61 15.15L211.51 15.87L211.51 14.66L214.84 13.44L215.02 13.44L215.02 22L213.61 22L213.61 15.15ZM221.35 21.85Q221.13 21.63 221.13 21.29Q221.13 20.95 221.35 20.73Q221.56 20.50 221.96 20.50L221.96 20.50Q222.35 20.50 222.57 20.73Q222.79 20.95 222.79 21.29L222.79 21.29Q222.79 21.63 222.57 21.84Q222.35 22.06 221.96 22.06L221.96 22.06Q221.57 22.06 221.35 21.85Z" fill="#000000"/><path class="svg__text" d="M251.34 22L247.75 13.60L250.32 13.60L252.60 19.07L254.93 13.60L257.28 13.60L253.68 22L251.34 22ZM261.00 17.80L261.00 17.80Q261.00 16.45 261.48 15.46Q261.95 14.46 262.79 13.95Q263.63 13.43 264.71 13.43L264.71 13.43Q265.77 13.43 266.61 13.95Q267.46 14.46 267.93 15.46Q268.40 16.45 268.40 17.80L268.40 17.80Q268.40 19.15 267.93 20.15Q267.46 21.14 266.62 21.65Q265.78 22.17 264.71 22.17L264.71 22.17Q263.63 22.17 262.79 21.65Q261.95 21.14 261.48 20.15Q261.00 19.16 261.00 17.80ZM263.39 17.80L263.39 17.80Q263.39 19.06 263.74 19.64Q264.10 20.22 264.71 20.22L264.71 20.22Q265.31 20.22 265.67 19.64Q266.02 19.06 266.02 17.80L266.02 17.80Q266.02 16.54 265.67 15.96Q265.31 15.38 264.71 15.38L264.71 15.38Q264.10 15.38 263.74 15.96Q263.39 16.54 263.39 17.80ZM272.62 20.75L272.62 20.75Q272.62 20.15 273.01 19.78Q273.40 19.41 273.99 19.41L273.99 19.41Q274.59 19.41 274.97 19.78Q275.35 20.15 275.35 20.75L275.35 20.75Q275.35 21.34 274.96 21.72Q274.57 22.11 273.99 22.11L273.99 22.11Q273.41 22.11 273.01 21.72Q272.62 21.34 272.62 20.75ZM280.81 15.44L279.24 15.44L279.24 13.60L283.18 13.60L283.18 22L280.81 22L280.81 15.44ZM287.84 20.75L287.84 20.75Q287.84 20.15 288.23 19.78Q288.62 19.41 289.21 19.41L289.21 19.41Q289.81 19.41 290.19 19.78Q290.58 20.15 290.58 20.75L290.58 20.75Q290.58 21.34 290.19 21.72Q289.80 22.11 289.21 22.11L289.21 22.11Q288.63 22.11 288.24 21.72Q287.84 21.34 287.84 20.75ZM294.65 21.24L294.65 21.24L295.43 19.49Q295.99 19.86 296.73 20.09Q297.48 20.32 298.20 20.32L298.20 20.32Q299.56 20.32 299.57 19.64L299.57 19.64Q299.57 19.28 299.18 19.11Q298.79 18.93 297.92 18.74L297.92 18.74Q296.97 18.53 296.34 18.30Q295.70 18.06 295.25 17.55Q294.80 17.03 294.80 16.16L294.80 16.16Q294.80 15.39 295.21 14.77Q295.63 14.15 296.47 13.79Q297.30 13.43 298.51 13.43L298.51 13.43Q299.34 13.43 300.14 13.62Q300.95 13.80 301.56 14.17L301.56 14.17L300.83 15.93Q299.63 15.28 298.50 15.28L298.50 15.28Q297.79 15.28 297.47 15.49Q297.14 15.70 297.14 16.04L297.14 16.04Q297.14 16.37 297.53 16.54Q297.91 16.71 298.76 16.89L298.76 16.89Q299.72 17.10 300.35 17.33Q300.98 17.56 301.45 18.07Q301.91 18.58 301.91 19.46L301.91 19.46Q301.91 20.21 301.49 20.83Q301.07 21.44 300.23 21.80Q299.39 22.17 298.19 22.17L298.19 22.17Q297.17 22.17 296.21 21.92Q295.25 21.67 294.65 21.24ZM306.06 17.80L306.06 17.80Q306.06 16.55 306.66 15.55Q307.26 14.56 308.33 14.00Q309.39 13.43 310.72 13.43L310.72 13.43Q312.05 13.43 313.11 14.00Q314.18 14.56 314.78 15.55Q315.39 16.55 315.39 17.80L315.39 17.80Q315.39 19.05 314.78 20.04Q314.18 21.04 313.12 21.60Q312.06 22.17 310.72 22.17L310.72 22.17Q309.39 22.17 308.33 21.60Q307.26 21.04 306.66 20.04Q306.06 19.05 306.06 17.80ZM308.45 17.80L308.45 17.80Q308.45 18.51 308.75 19.05Q309.06 19.60 309.57 19.90Q310.09 20.20 310.72 20.20L310.72 20.20Q311.36 20.20 311.88 19.90Q312.39 19.60 312.69 19.05Q312.99 18.51 312.99 17.80L312.99 17.80Q312.99 17.09 312.69 16.54Q312.39 16 311.88 15.70Q311.36 15.40 310.72 15.40L310.72 15.40Q310.08 15.40 309.57 15.70Q309.06 16 308.75 16.54Q308.45 17.09 308.45 17.80ZM320.05 18.26L320.05 18.26L320.05 13.60L322.43 13.60L322.43 18.19Q322.43 20.20 324.02 20.20L324.02 20.20Q325.60 20.20 325.60 18.19L325.60 18.19L325.60 13.60L327.95 13.60L327.95 18.26Q327.95 20.13 326.91 21.15Q325.87 22.17 324.00 22.17L324.00 22.17Q322.12 22.17 321.09 21.15Q320.05 20.13 320.05 18.26ZM335.41 22L333.03 22L333.03 13.60L336.88 13.60Q338.02 13.60 338.86 13.98Q339.70 14.35 340.15 15.06Q340.61 15.76 340.61 16.71L340.61 16.71Q340.61 17.62 340.18 18.30Q339.75 18.98 338.96 19.36L338.96 19.36L340.77 22L338.23 22L336.71 19.77L335.41 19.77L335.41 22ZM335.41 15.47L335.41 17.93L336.73 17.93Q337.46 17.93 337.84 17.61Q338.21 17.29 338.21 16.71L338.21 16.71Q338.21 16.12 337.84 15.79Q337.46 15.47 336.73 15.47L336.73 15.47L335.41 15.47ZM344.97 17.80L344.97 17.80Q344.97 16.54 345.57 15.54Q346.16 14.55 347.22 13.99Q348.27 13.43 349.59 13.43L349.59 13.43Q350.74 13.43 351.66 13.84Q352.59 14.25 353.20 15.02L353.20 15.02L351.69 16.39Q350.88 15.40 349.71 15.40L349.71 15.40Q349.02 15.40 348.49 15.70Q347.96 16 347.66 16.54Q347.37 17.09 347.37 17.80L347.37 17.80Q347.37 18.51 347.66 19.05Q347.96 19.60 348.49 19.90Q349.02 20.20 349.71 20.20L349.71 20.20Q350.88 20.20 351.69 19.22L351.69 19.22L353.20 20.58Q352.59 21.35 351.67 21.76Q350.74 22.17 349.59 22.17L349.59 22.17Q348.27 22.17 347.22 21.61Q346.16 21.05 345.57 20.05Q344.97 19.06 344.97 17.80ZM364.48 22L357.74 22L357.74 13.60L364.33 13.60L364.33 15.44L360.09 15.44L360.09 16.85L363.82 16.85L363.82 18.63L360.09 18.63L360.09 20.17L364.48 20.17L364.48 22ZM368.86 17.80L368.86 17.80Q368.86 16.54 369.46 15.54Q370.05 14.55 371.10 13.99Q372.16 13.43 373.47 13.43L373.47 13.43Q374.63 13.43 375.55 13.84Q376.47 14.25 377.09 15.02L377.09 15.02L375.58 16.39Q374.76 15.40 373.60 15.40L373.60 15.40Q372.91 15.40 372.38 15.70Q371.85 16 371.55 16.54Q371.25 17.09 371.25 17.80L371.25 17.80Q371.25 18.51 371.55 19.05Q371.85 19.60 372.38 19.90Q372.91 20.20 373.60 20.20L373.60 20.20Q374.76 20.20 375.58 19.22L375.58 19.22L377.09 20.58Q376.48 21.35 375.55 21.76Q374.63 22.17 373.47 22.17L373.47 22.17Q372.16 22.17 371.10 21.61Q370.05 21.05 369.46 20.05Q368.86 19.06 368.86 17.80ZM381.20 17.80L381.20 17.80Q381.20 16.55 381.80 15.55Q382.40 14.56 383.47 14.00Q384.53 13.43 385.86 13.43L385.86 13.43Q387.19 13.43 388.25 14.00Q389.32 14.56 389.92 15.55Q390.53 16.55 390.53 17.80L390.53 17.80Q390.53 19.05 389.92 20.04Q389.32 21.04 388.26 21.60Q387.20 22.17 385.86 22.17L385.86 22.17Q384.53 22.17 383.47 21.60Q382.40 21.04 381.80 20.04Q381.20 19.05 381.20 17.80ZM383.59 17.80L383.59 17.80Q383.59 18.51 383.90 19.05Q384.20 19.60 384.71 19.90Q385.23 20.20 385.86 20.20L385.86 20.20Q386.50 20.20 387.02 19.90Q387.53 19.60 387.83 19.05Q388.13 18.51 388.13 17.80L388.13 17.80Q388.13 17.09 387.83 16.54Q387.53 16 387.02 15.70Q386.50 15.40 385.86 15.40L385.86 15.40Q385.22 15.40 384.71 15.70Q384.20 16 383.90 16.54Q383.59 17.09 383.59 17.80ZM399.23 22L395.26 22L395.26 13.60L399.23 13.60Q400.62 13.60 401.68 14.12Q402.75 14.63 403.34 15.58Q403.93 16.53 403.93 17.80L403.93 17.80Q403.93 19.07 403.34 20.02Q402.75 20.97 401.68 21.48Q400.62 22 399.23 22L399.23 22ZM397.64 15.50L397.64 20.10L399.14 20.10Q400.22 20.10 400.87 19.49Q401.52 18.88 401.52 17.80L401.52 17.80Q401.52 16.72 400.87 16.11Q400.22 15.50 399.14 15.50L399.14 15.50L397.64 15.50ZM415.40 22L408.65 22L408.65 13.60L415.25 13.60L415.25 15.44L411.01 15.44L411.01 16.85L414.74 16.85L414.74 18.63L411.01 18.63L411.01 20.17L415.40 20.17L415.40 22ZM419.69 20.75L419.69 20.75Q419.69 20.15 420.08 19.78Q420.47 19.41 421.06 19.41L421.06 19.41Q421.66 19.41 422.04 19.78Q422.42 20.15 422.42 20.75L422.42 20.75Q422.42 21.34 422.03 21.72Q421.64 22.11 421.06 22.11L421.06 22.11Q420.48 22.11 420.08 21.72Q419.69 21.34 419.69 20.75ZM429.46 22L427.08 22L427.08 13.60L430.93 13.60Q432.06 13.60 432.90 13.98Q433.74 14.35 434.20 15.06Q434.66 15.76 434.66 16.71L434.66 16.71Q434.66 17.66 434.20 18.35Q433.74 19.05 432.90 19.42Q432.06 19.80 430.93 19.80L430.93 19.80L429.46 19.80L429.46 22ZM429.46 15.47L429.46 17.93L430.78 17.93Q431.51 17.93 431.88 17.61Q432.26 17.29 432.26 16.71L432.26 16.71Q432.26 16.12 431.88 15.80Q431.51 15.47 430.78 15.47L430.78 15.47L429.46 15.47ZM441.54 18.95L438.33 13.60L440.84 13.60L442.83 16.94L444.82 13.60L447.13 13.60L443.91 18.99L443.91 22L441.54 22L441.54 18.95Z" fill="#F3CA20" x="247.57"/></svg>